# xmcd
#
# Track frame offsets: 
#        150
#        25045
#        41500
#        61937
#        84505
#        104840
#        128445
#        147625
#        167835
#        186065
#        207185
#
# Disc length: 3107 seconds
#
# Revision: 3
# Processed by: cddbd v1.4PL0 Copyright (c) Steve Scherf et al.
# Submitted via: ExactAudioCopy v0.90b4
#
DISCID=950c210b
DTITLE=Counting Crows - August And Everything After
DYEAR=1993
DGENRE=Folk/Rock
TTITLE0=Round Here
TTITLE1=Omaha
TTITLE2=Mr. Jones
TTITLE3=Perfect Blue Buildings
TTITLE4=Anna Begins
TTITLE5=Time And Time Again
TTITLE6=Rain King
TTITLE7=Sullivan Street
TTITLE8=Ghost Train
TTITLE9=Raining In Baltimore
TTITLE10=A Murder Of One
EXTD=
EXTT0=
EXTT1=
EXTT2=
EXTT3=
EXTT4=
EXTT5=
EXTT6=
EXTT7=
EXTT8=
EXTT9=
EXTT10=
PLAYORDER=
